G75*
%MOIN*%
%OFA0B0*%
%FSLAX25Y25*%
%IPPOS*%
%LPD*%
%AMOC8*
5,1,8,0,0,1.08239X$1,22.5*
%
%ADD10C,0.00000*%
%ADD11OC8,0.05200*%
%ADD12OC8,0.06300*%
%ADD13C,0.06300*%
%ADD14C,0.05200*%
%ADD15C,0.06000*%
%ADD16OC8,0.07000*%
%ADD17C,0.01000*%
D10*
X0001800Y0001800D02*
X0001800Y0106761D01*
X0140501Y0106761D01*
X0140501Y0001800D01*
X0001800Y0001800D01*
D11*
X0016800Y0011800D03*
X0026800Y0011800D03*
X0041800Y0016800D03*
X0041800Y0026800D03*
X0041800Y0036800D03*
X0041800Y0046800D03*
X0026800Y0051800D03*
X0016800Y0051800D03*
X0086800Y0031800D03*
X0096800Y0021800D03*
X0116800Y0021800D03*
X0126800Y0031800D03*
D12*
X0101800Y0051800D03*
X0071800Y0021800D03*
X0106800Y0081800D03*
X0081800Y0091800D03*
D13*
X0071800Y0091800D03*
X0106800Y0071800D03*
X0111800Y0051800D03*
X0061800Y0021800D03*
D14*
X0061800Y0041800D03*
X0061800Y0051800D03*
X0061800Y0061800D03*
X0061800Y0071800D03*
X0091800Y0071800D03*
X0091800Y0061800D03*
X0091800Y0051800D03*
X0091800Y0041800D03*
D15*
X0123800Y0046800D02*
X0129800Y0046800D01*
X0129800Y0056800D02*
X0123800Y0056800D01*
X0019800Y0066800D02*
X0013800Y0066800D01*
X0013800Y0076800D02*
X0019800Y0076800D01*
X0019800Y0086800D02*
X0013800Y0086800D01*
D16*
X0036800Y0076800D03*
X0046800Y0066800D03*
X0046800Y0086800D03*
D17*
X0034100Y0086600D02*
X0017000Y0086600D01*
X0016800Y0086800D01*
X0016800Y0076800D02*
X0017000Y0076700D01*
X0024200Y0069500D01*
X0024200Y0065000D01*
X0017000Y0057800D01*
X0017000Y0052400D01*
X0016800Y0051800D01*
X0026000Y0051500D02*
X0026800Y0051800D01*
X0026900Y0051500D01*
X0031400Y0047000D01*
X0041300Y0047000D01*
X0041800Y0046800D01*
X0046700Y0041600D02*
X0042200Y0037100D01*
X0041800Y0036800D01*
X0042200Y0036200D01*
X0042200Y0027200D01*
X0041800Y0026800D01*
X0042200Y0017300D02*
X0041800Y0016800D01*
X0041300Y0016400D01*
X0036800Y0011900D01*
X0026900Y0011900D01*
X0026800Y0011800D01*
X0017000Y0011900D02*
X0016800Y0011800D01*
X0017000Y0011900D02*
X0017000Y0042500D01*
X0026000Y0051500D01*
X0046700Y0041600D02*
X0061100Y0041600D01*
X0061800Y0041800D01*
X0061800Y0051800D02*
X0061100Y0052400D01*
X0053900Y0052400D01*
X0036800Y0069500D01*
X0036800Y0076800D01*
X0034100Y0086600D02*
X0053000Y0067700D01*
X0062000Y0067700D01*
X0077300Y0052400D01*
X0091700Y0052400D01*
X0091800Y0051800D01*
X0092600Y0042500D02*
X0101600Y0051500D01*
X0101800Y0051800D01*
X0102500Y0051500D01*
X0121400Y0032600D01*
X0126800Y0032600D01*
X0126800Y0031800D01*
X0111800Y0051800D02*
X0116000Y0056000D01*
X0126800Y0056000D01*
X0126800Y0056800D01*
X0106800Y0071800D02*
X0106100Y0071300D01*
X0097100Y0062300D01*
X0092600Y0062300D01*
X0091800Y0061800D01*
X0091800Y0071800D02*
X0091700Y0072200D01*
X0091700Y0081200D01*
X0081800Y0091100D01*
X0081800Y0091800D01*
X0071800Y0091800D02*
X0071000Y0091100D01*
X0062000Y0082100D01*
X0062000Y0072200D01*
X0061800Y0071800D01*
X0061100Y0062300D02*
X0052100Y0062300D01*
X0047600Y0066800D01*
X0046800Y0066800D01*
X0061100Y0062300D02*
X0061800Y0061800D01*
X0091800Y0041800D02*
X0092600Y0042500D01*
X0086800Y0031800D02*
X0086300Y0031700D01*
X0096200Y0021800D01*
X0096800Y0021800D01*
X0071800Y0021800D02*
X0068300Y0021800D01*
X0063800Y0017300D01*
X0042200Y0017300D01*
M02*
