G75*
%MOIN*%
%OFA0B0*%
%FSLAX25Y25*%
%IPPOS*%
%LPD*%
%AMOC8*
5,1,8,0,0,1.08239X$1,22.5*
%
%ADD10C,0.00000*%
%ADD11C,0.00400*%
%ADD12C,0.00600*%
%ADD13C,0.01200*%
%ADD14C,0.00500*%
%ADD15C,0.01000*%
%ADD16R,0.02400X0.03400*%
%ADD17R,0.03400X0.02400*%
D10*
X0001800Y0001800D02*
X0001800Y0106761D01*
X0140501Y0106761D01*
X0140501Y0001800D01*
X0001800Y0001800D01*
D11*
X0008535Y0097000D02*
X0008535Y0101604D01*
X0010069Y0101604D02*
X0007000Y0101604D01*
X0011604Y0101604D02*
X0014673Y0101604D01*
X0013139Y0101604D02*
X0013139Y0097000D01*
X0016208Y0097767D02*
X0016975Y0097000D01*
X0018510Y0097000D01*
X0019277Y0097767D01*
X0019277Y0098535D01*
X0018510Y0099302D01*
X0016975Y0099302D01*
X0016208Y0100069D01*
X0016208Y0100837D01*
X0016975Y0101604D01*
X0018510Y0101604D01*
X0019277Y0100837D01*
X0025416Y0100069D02*
X0027718Y0100069D01*
X0028485Y0100069D01*
X0030020Y0100069D02*
X0031554Y0101604D01*
X0031554Y0097000D01*
X0030020Y0097000D02*
X0033089Y0097000D01*
X0028485Y0098535D02*
X0025416Y0098535D01*
X0026183Y0097000D02*
X0026183Y0101604D01*
X0027718Y0101604D02*
X0027718Y0097000D01*
D12*
X0021800Y0089300D02*
X0019300Y0091800D01*
X0014300Y0091800D01*
X0011800Y0089300D01*
X0011800Y0084300D01*
X0014300Y0081800D01*
X0019300Y0081800D01*
X0021800Y0084300D01*
X0021800Y0089300D01*
X0019300Y0081800D02*
X0021800Y0079300D01*
X0021800Y0074300D01*
X0019300Y0071800D01*
X0021800Y0069300D01*
X0021800Y0064300D01*
X0019300Y0061800D01*
X0014300Y0061800D01*
X0011800Y0064300D01*
X0011800Y0069300D01*
X0014300Y0071800D01*
X0011800Y0074300D01*
X0011800Y0079300D01*
X0014300Y0081800D01*
X0014300Y0071800D02*
X0019300Y0071800D01*
X0037800Y0051300D02*
X0045800Y0051300D01*
X0045860Y0051298D01*
X0045921Y0051293D01*
X0045980Y0051284D01*
X0046039Y0051271D01*
X0046098Y0051255D01*
X0046155Y0051235D01*
X0046210Y0051212D01*
X0046265Y0051185D01*
X0046317Y0051156D01*
X0046368Y0051123D01*
X0046417Y0051087D01*
X0046463Y0051049D01*
X0046507Y0051007D01*
X0046549Y0050963D01*
X0046587Y0050917D01*
X0046623Y0050868D01*
X0046656Y0050817D01*
X0046685Y0050765D01*
X0046712Y0050710D01*
X0046735Y0050655D01*
X0046755Y0050598D01*
X0046771Y0050539D01*
X0046784Y0050480D01*
X0046793Y0050421D01*
X0046798Y0050360D01*
X0046800Y0050300D01*
X0046800Y0033300D01*
X0046798Y0033240D01*
X0046793Y0033179D01*
X0046784Y0033120D01*
X0046771Y0033061D01*
X0046755Y0033002D01*
X0046735Y0032945D01*
X0046712Y0032890D01*
X0046685Y0032835D01*
X0046656Y0032783D01*
X0046623Y0032732D01*
X0046587Y0032683D01*
X0046549Y0032637D01*
X0046507Y0032593D01*
X0046463Y0032551D01*
X0046417Y0032513D01*
X0046368Y0032477D01*
X0046317Y0032444D01*
X0046265Y0032415D01*
X0046210Y0032388D01*
X0046155Y0032365D01*
X0046098Y0032345D01*
X0046039Y0032329D01*
X0045980Y0032316D01*
X0045921Y0032307D01*
X0045860Y0032302D01*
X0045800Y0032300D01*
X0037800Y0032300D01*
X0037800Y0031300D02*
X0045800Y0031300D01*
X0045860Y0031298D01*
X0045921Y0031293D01*
X0045980Y0031284D01*
X0046039Y0031271D01*
X0046098Y0031255D01*
X0046155Y0031235D01*
X0046210Y0031212D01*
X0046265Y0031185D01*
X0046317Y0031156D01*
X0046368Y0031123D01*
X0046417Y0031087D01*
X0046463Y0031049D01*
X0046507Y0031007D01*
X0046549Y0030963D01*
X0046587Y0030917D01*
X0046623Y0030868D01*
X0046656Y0030817D01*
X0046685Y0030765D01*
X0046712Y0030710D01*
X0046735Y0030655D01*
X0046755Y0030598D01*
X0046771Y0030539D01*
X0046784Y0030480D01*
X0046793Y0030421D01*
X0046798Y0030360D01*
X0046800Y0030300D01*
X0046800Y0013300D01*
X0046798Y0013240D01*
X0046793Y0013179D01*
X0046784Y0013120D01*
X0046771Y0013061D01*
X0046755Y0013002D01*
X0046735Y0012945D01*
X0046712Y0012890D01*
X0046685Y0012835D01*
X0046656Y0012783D01*
X0046623Y0012732D01*
X0046587Y0012683D01*
X0046549Y0012637D01*
X0046507Y0012593D01*
X0046463Y0012551D01*
X0046417Y0012513D01*
X0046368Y0012477D01*
X0046317Y0012444D01*
X0046265Y0012415D01*
X0046210Y0012388D01*
X0046155Y0012365D01*
X0046098Y0012345D01*
X0046039Y0012329D01*
X0045980Y0012316D01*
X0045921Y0012307D01*
X0045860Y0012302D01*
X0045800Y0012300D01*
X0037800Y0012300D01*
X0037740Y0012302D01*
X0037679Y0012307D01*
X0037620Y0012316D01*
X0037561Y0012329D01*
X0037502Y0012345D01*
X0037445Y0012365D01*
X0037390Y0012388D01*
X0037335Y0012415D01*
X0037283Y0012444D01*
X0037232Y0012477D01*
X0037183Y0012513D01*
X0037137Y0012551D01*
X0037093Y0012593D01*
X0037051Y0012637D01*
X0037013Y0012683D01*
X0036977Y0012732D01*
X0036944Y0012783D01*
X0036915Y0012835D01*
X0036888Y0012890D01*
X0036865Y0012945D01*
X0036845Y0013002D01*
X0036829Y0013061D01*
X0036816Y0013120D01*
X0036807Y0013179D01*
X0036802Y0013240D01*
X0036800Y0013300D01*
X0036800Y0030300D01*
X0036802Y0030360D01*
X0036807Y0030421D01*
X0036816Y0030480D01*
X0036829Y0030539D01*
X0036845Y0030598D01*
X0036865Y0030655D01*
X0036888Y0030710D01*
X0036915Y0030765D01*
X0036944Y0030817D01*
X0036977Y0030868D01*
X0037013Y0030917D01*
X0037051Y0030963D01*
X0037093Y0031007D01*
X0037137Y0031049D01*
X0037183Y0031087D01*
X0037232Y0031123D01*
X0037283Y0031156D01*
X0037335Y0031185D01*
X0037390Y0031212D01*
X0037445Y0031235D01*
X0037502Y0031255D01*
X0037561Y0031271D01*
X0037620Y0031284D01*
X0037679Y0031293D01*
X0037740Y0031298D01*
X0037800Y0031300D01*
X0037800Y0032300D02*
X0037740Y0032302D01*
X0037679Y0032307D01*
X0037620Y0032316D01*
X0037561Y0032329D01*
X0037502Y0032345D01*
X0037445Y0032365D01*
X0037390Y0032388D01*
X0037335Y0032415D01*
X0037283Y0032444D01*
X0037232Y0032477D01*
X0037183Y0032513D01*
X0037137Y0032551D01*
X0037093Y0032593D01*
X0037051Y0032637D01*
X0037013Y0032683D01*
X0036977Y0032732D01*
X0036944Y0032783D01*
X0036915Y0032835D01*
X0036888Y0032890D01*
X0036865Y0032945D01*
X0036845Y0033002D01*
X0036829Y0033061D01*
X0036816Y0033120D01*
X0036807Y0033179D01*
X0036802Y0033240D01*
X0036800Y0033300D01*
X0036800Y0050300D01*
X0036802Y0050360D01*
X0036807Y0050421D01*
X0036816Y0050480D01*
X0036829Y0050539D01*
X0036845Y0050598D01*
X0036865Y0050655D01*
X0036888Y0050710D01*
X0036915Y0050765D01*
X0036944Y0050817D01*
X0036977Y0050868D01*
X0037013Y0050917D01*
X0037051Y0050963D01*
X0037093Y0051007D01*
X0037137Y0051049D01*
X0037183Y0051087D01*
X0037232Y0051123D01*
X0037283Y0051156D01*
X0037335Y0051185D01*
X0037390Y0051212D01*
X0037445Y0051235D01*
X0037502Y0051255D01*
X0037561Y0051271D01*
X0037620Y0051284D01*
X0037679Y0051293D01*
X0037740Y0051298D01*
X0037800Y0051300D01*
X0030300Y0044300D02*
X0023300Y0044300D01*
X0023240Y0044298D01*
X0023179Y0044293D01*
X0023120Y0044284D01*
X0023061Y0044271D01*
X0023002Y0044255D01*
X0022945Y0044235D01*
X0022890Y0044212D01*
X0022835Y0044185D01*
X0022783Y0044156D01*
X0022732Y0044123D01*
X0022683Y0044087D01*
X0022637Y0044049D01*
X0022593Y0044007D01*
X0022551Y0043963D01*
X0022513Y0043917D01*
X0022477Y0043868D01*
X0022444Y0043817D01*
X0022415Y0043765D01*
X0022388Y0043710D01*
X0022365Y0043655D01*
X0022345Y0043598D01*
X0022329Y0043539D01*
X0022316Y0043480D01*
X0022307Y0043421D01*
X0022302Y0043360D01*
X0022300Y0043300D01*
X0022300Y0041800D01*
X0022800Y0041300D01*
X0022800Y0022300D01*
X0022300Y0021800D01*
X0022300Y0020300D01*
X0021300Y0020300D02*
X0021300Y0021800D01*
X0020800Y0022300D01*
X0020800Y0041300D01*
X0021300Y0041800D01*
X0021300Y0043300D01*
X0021298Y0043360D01*
X0021293Y0043421D01*
X0021284Y0043480D01*
X0021271Y0043539D01*
X0021255Y0043598D01*
X0021235Y0043655D01*
X0021212Y0043710D01*
X0021185Y0043765D01*
X0021156Y0043817D01*
X0021123Y0043868D01*
X0021087Y0043917D01*
X0021049Y0043963D01*
X0021007Y0044007D01*
X0020963Y0044049D01*
X0020917Y0044087D01*
X0020868Y0044123D01*
X0020817Y0044156D01*
X0020765Y0044185D01*
X0020710Y0044212D01*
X0020655Y0044235D01*
X0020598Y0044255D01*
X0020539Y0044271D01*
X0020480Y0044284D01*
X0020421Y0044293D01*
X0020360Y0044298D01*
X0020300Y0044300D01*
X0013300Y0044300D01*
X0013240Y0044298D01*
X0013179Y0044293D01*
X0013120Y0044284D01*
X0013061Y0044271D01*
X0013002Y0044255D01*
X0012945Y0044235D01*
X0012890Y0044212D01*
X0012835Y0044185D01*
X0012783Y0044156D01*
X0012732Y0044123D01*
X0012683Y0044087D01*
X0012637Y0044049D01*
X0012593Y0044007D01*
X0012551Y0043963D01*
X0012513Y0043917D01*
X0012477Y0043868D01*
X0012444Y0043817D01*
X0012415Y0043765D01*
X0012388Y0043710D01*
X0012365Y0043655D01*
X0012345Y0043598D01*
X0012329Y0043539D01*
X0012316Y0043480D01*
X0012307Y0043421D01*
X0012302Y0043360D01*
X0012300Y0043300D01*
X0012300Y0041800D01*
X0012800Y0041300D01*
X0012800Y0022300D01*
X0012300Y0021800D01*
X0012300Y0020300D01*
X0012302Y0020240D01*
X0012307Y0020179D01*
X0012316Y0020120D01*
X0012329Y0020061D01*
X0012345Y0020002D01*
X0012365Y0019945D01*
X0012388Y0019890D01*
X0012415Y0019835D01*
X0012444Y0019783D01*
X0012477Y0019732D01*
X0012513Y0019683D01*
X0012551Y0019637D01*
X0012593Y0019593D01*
X0012637Y0019551D01*
X0012683Y0019513D01*
X0012732Y0019477D01*
X0012783Y0019444D01*
X0012835Y0019415D01*
X0012890Y0019388D01*
X0012945Y0019365D01*
X0013002Y0019345D01*
X0013061Y0019329D01*
X0013120Y0019316D01*
X0013179Y0019307D01*
X0013240Y0019302D01*
X0013300Y0019300D01*
X0020300Y0019300D01*
X0020360Y0019302D01*
X0020421Y0019307D01*
X0020480Y0019316D01*
X0020539Y0019329D01*
X0020598Y0019345D01*
X0020655Y0019365D01*
X0020710Y0019388D01*
X0020765Y0019415D01*
X0020817Y0019444D01*
X0020868Y0019477D01*
X0020917Y0019513D01*
X0020963Y0019551D01*
X0021007Y0019593D01*
X0021049Y0019637D01*
X0021087Y0019683D01*
X0021123Y0019732D01*
X0021156Y0019783D01*
X0021185Y0019835D01*
X0021212Y0019890D01*
X0021235Y0019945D01*
X0021255Y0020002D01*
X0021271Y0020061D01*
X0021284Y0020120D01*
X0021293Y0020179D01*
X0021298Y0020240D01*
X0021300Y0020300D01*
X0022300Y0020300D02*
X0022302Y0020240D01*
X0022307Y0020179D01*
X0022316Y0020120D01*
X0022329Y0020061D01*
X0022345Y0020002D01*
X0022365Y0019945D01*
X0022388Y0019890D01*
X0022415Y0019835D01*
X0022444Y0019783D01*
X0022477Y0019732D01*
X0022513Y0019683D01*
X0022551Y0019637D01*
X0022593Y0019593D01*
X0022637Y0019551D01*
X0022683Y0019513D01*
X0022732Y0019477D01*
X0022783Y0019444D01*
X0022835Y0019415D01*
X0022890Y0019388D01*
X0022945Y0019365D01*
X0023002Y0019345D01*
X0023061Y0019329D01*
X0023120Y0019316D01*
X0023179Y0019307D01*
X0023240Y0019302D01*
X0023300Y0019300D01*
X0030300Y0019300D01*
X0030360Y0019302D01*
X0030421Y0019307D01*
X0030480Y0019316D01*
X0030539Y0019329D01*
X0030598Y0019345D01*
X0030655Y0019365D01*
X0030710Y0019388D01*
X0030765Y0019415D01*
X0030817Y0019444D01*
X0030868Y0019477D01*
X0030917Y0019513D01*
X0030963Y0019551D01*
X0031007Y0019593D01*
X0031049Y0019637D01*
X0031087Y0019683D01*
X0031123Y0019732D01*
X0031156Y0019783D01*
X0031185Y0019835D01*
X0031212Y0019890D01*
X0031235Y0019945D01*
X0031255Y0020002D01*
X0031271Y0020061D01*
X0031284Y0020120D01*
X0031293Y0020179D01*
X0031298Y0020240D01*
X0031300Y0020300D01*
X0031300Y0021800D01*
X0030800Y0022300D01*
X0030800Y0041300D01*
X0031300Y0041800D01*
X0031300Y0043300D01*
X0031298Y0043360D01*
X0031293Y0043421D01*
X0031284Y0043480D01*
X0031271Y0043539D01*
X0031255Y0043598D01*
X0031235Y0043655D01*
X0031212Y0043710D01*
X0031185Y0043765D01*
X0031156Y0043817D01*
X0031123Y0043868D01*
X0031087Y0043917D01*
X0031049Y0043963D01*
X0031007Y0044007D01*
X0030963Y0044049D01*
X0030917Y0044087D01*
X0030868Y0044123D01*
X0030817Y0044156D01*
X0030765Y0044185D01*
X0030710Y0044212D01*
X0030655Y0044235D01*
X0030598Y0044255D01*
X0030539Y0044271D01*
X0030480Y0044284D01*
X0030421Y0044293D01*
X0030360Y0044298D01*
X0030300Y0044300D01*
X0041800Y0043300D02*
X0041800Y0042800D01*
X0041800Y0040800D02*
X0041800Y0040300D01*
X0060300Y0026800D02*
X0061300Y0026800D01*
X0061300Y0027800D01*
X0061300Y0026800D02*
X0062300Y0026800D01*
X0061300Y0026800D02*
X0061300Y0025800D01*
X0056800Y0021800D02*
X0056803Y0022045D01*
X0056812Y0022291D01*
X0056827Y0022536D01*
X0056848Y0022780D01*
X0056875Y0023024D01*
X0056908Y0023267D01*
X0056947Y0023510D01*
X0056992Y0023751D01*
X0057043Y0023991D01*
X0057100Y0024230D01*
X0057162Y0024467D01*
X0057231Y0024703D01*
X0057305Y0024937D01*
X0057385Y0025169D01*
X0057470Y0025399D01*
X0057561Y0025627D01*
X0057658Y0025852D01*
X0057760Y0026076D01*
X0057868Y0026296D01*
X0057981Y0026514D01*
X0058099Y0026729D01*
X0058223Y0026941D01*
X0058351Y0027150D01*
X0058485Y0027356D01*
X0058624Y0027558D01*
X0058768Y0027757D01*
X0058917Y0027952D01*
X0059070Y0028144D01*
X0059228Y0028332D01*
X0059390Y0028516D01*
X0059558Y0028695D01*
X0059729Y0028871D01*
X0059905Y0029042D01*
X0060084Y0029210D01*
X0060268Y0029372D01*
X0060456Y0029530D01*
X0060648Y0029683D01*
X0060843Y0029832D01*
X0061042Y0029976D01*
X0061244Y0030115D01*
X0061450Y0030249D01*
X0061659Y0030377D01*
X0061871Y0030501D01*
X0062086Y0030619D01*
X0062304Y0030732D01*
X0062524Y0030840D01*
X0062748Y0030942D01*
X0062973Y0031039D01*
X0063201Y0031130D01*
X0063431Y0031215D01*
X0063663Y0031295D01*
X0063897Y0031369D01*
X0064133Y0031438D01*
X0064370Y0031500D01*
X0064609Y0031557D01*
X0064849Y0031608D01*
X0065090Y0031653D01*
X0065333Y0031692D01*
X0065576Y0031725D01*
X0065820Y0031752D01*
X0066064Y0031773D01*
X0066309Y0031788D01*
X0066555Y0031797D01*
X0066800Y0031800D01*
X0067045Y0031797D01*
X0067291Y0031788D01*
X0067536Y0031773D01*
X0067780Y0031752D01*
X0068024Y0031725D01*
X0068267Y0031692D01*
X0068510Y0031653D01*
X0068751Y0031608D01*
X0068991Y0031557D01*
X0069230Y0031500D01*
X0069467Y0031438D01*
X0069703Y0031369D01*
X0069937Y0031295D01*
X0070169Y0031215D01*
X0070399Y0031130D01*
X0070627Y0031039D01*
X0070852Y0030942D01*
X0071076Y0030840D01*
X0071296Y0030732D01*
X0071514Y0030619D01*
X0071729Y0030501D01*
X0071941Y0030377D01*
X0072150Y0030249D01*
X0072356Y0030115D01*
X0072558Y0029976D01*
X0072757Y0029832D01*
X0072952Y0029683D01*
X0073144Y0029530D01*
X0073332Y0029372D01*
X0073516Y0029210D01*
X0073695Y0029042D01*
X0073871Y0028871D01*
X0074042Y0028695D01*
X0074210Y0028516D01*
X0074372Y0028332D01*
X0074530Y0028144D01*
X0074683Y0027952D01*
X0074832Y0027757D01*
X0074976Y0027558D01*
X0075115Y0027356D01*
X0075249Y0027150D01*
X0075377Y0026941D01*
X0075501Y0026729D01*
X0075619Y0026514D01*
X0075732Y0026296D01*
X0075840Y0026076D01*
X0075942Y0025852D01*
X0076039Y0025627D01*
X0076130Y0025399D01*
X0076215Y0025169D01*
X0076295Y0024937D01*
X0076369Y0024703D01*
X0076438Y0024467D01*
X0076500Y0024230D01*
X0076557Y0023991D01*
X0076608Y0023751D01*
X0076653Y0023510D01*
X0076692Y0023267D01*
X0076725Y0023024D01*
X0076752Y0022780D01*
X0076773Y0022536D01*
X0076788Y0022291D01*
X0076797Y0022045D01*
X0076800Y0021800D01*
X0076797Y0021555D01*
X0076788Y0021309D01*
X0076773Y0021064D01*
X0076752Y0020820D01*
X0076725Y0020576D01*
X0076692Y0020333D01*
X0076653Y0020090D01*
X0076608Y0019849D01*
X0076557Y0019609D01*
X0076500Y0019370D01*
X0076438Y0019133D01*
X0076369Y0018897D01*
X0076295Y0018663D01*
X0076215Y0018431D01*
X0076130Y0018201D01*
X0076039Y0017973D01*
X0075942Y0017748D01*
X0075840Y0017524D01*
X0075732Y0017304D01*
X0075619Y0017086D01*
X0075501Y0016871D01*
X0075377Y0016659D01*
X0075249Y0016450D01*
X0075115Y0016244D01*
X0074976Y0016042D01*
X0074832Y0015843D01*
X0074683Y0015648D01*
X0074530Y0015456D01*
X0074372Y0015268D01*
X0074210Y0015084D01*
X0074042Y0014905D01*
X0073871Y0014729D01*
X0073695Y0014558D01*
X0073516Y0014390D01*
X0073332Y0014228D01*
X0073144Y0014070D01*
X0072952Y0013917D01*
X0072757Y0013768D01*
X0072558Y0013624D01*
X0072356Y0013485D01*
X0072150Y0013351D01*
X0071941Y0013223D01*
X0071729Y0013099D01*
X0071514Y0012981D01*
X0071296Y0012868D01*
X0071076Y0012760D01*
X0070852Y0012658D01*
X0070627Y0012561D01*
X0070399Y0012470D01*
X0070169Y0012385D01*
X0069937Y0012305D01*
X0069703Y0012231D01*
X0069467Y0012162D01*
X0069230Y0012100D01*
X0068991Y0012043D01*
X0068751Y0011992D01*
X0068510Y0011947D01*
X0068267Y0011908D01*
X0068024Y0011875D01*
X0067780Y0011848D01*
X0067536Y0011827D01*
X0067291Y0011812D01*
X0067045Y0011803D01*
X0066800Y0011800D01*
X0066555Y0011803D01*
X0066309Y0011812D01*
X0066064Y0011827D01*
X0065820Y0011848D01*
X0065576Y0011875D01*
X0065333Y0011908D01*
X0065090Y0011947D01*
X0064849Y0011992D01*
X0064609Y0012043D01*
X0064370Y0012100D01*
X0064133Y0012162D01*
X0063897Y0012231D01*
X0063663Y0012305D01*
X0063431Y0012385D01*
X0063201Y0012470D01*
X0062973Y0012561D01*
X0062748Y0012658D01*
X0062524Y0012760D01*
X0062304Y0012868D01*
X0062086Y0012981D01*
X0061871Y0013099D01*
X0061659Y0013223D01*
X0061450Y0013351D01*
X0061244Y0013485D01*
X0061042Y0013624D01*
X0060843Y0013768D01*
X0060648Y0013917D01*
X0060456Y0014070D01*
X0060268Y0014228D01*
X0060084Y0014390D01*
X0059905Y0014558D01*
X0059729Y0014729D01*
X0059558Y0014905D01*
X0059390Y0015084D01*
X0059228Y0015268D01*
X0059070Y0015456D01*
X0058917Y0015648D01*
X0058768Y0015843D01*
X0058624Y0016042D01*
X0058485Y0016244D01*
X0058351Y0016450D01*
X0058223Y0016659D01*
X0058099Y0016871D01*
X0057981Y0017086D01*
X0057868Y0017304D01*
X0057760Y0017524D01*
X0057658Y0017748D01*
X0057561Y0017973D01*
X0057470Y0018201D01*
X0057385Y0018431D01*
X0057305Y0018663D01*
X0057231Y0018897D01*
X0057162Y0019133D01*
X0057100Y0019370D01*
X0057043Y0019609D01*
X0056992Y0019849D01*
X0056947Y0020090D01*
X0056908Y0020333D01*
X0056875Y0020576D01*
X0056848Y0020820D01*
X0056827Y0021064D01*
X0056812Y0021309D01*
X0056803Y0021555D01*
X0056800Y0021800D01*
X0041800Y0020800D02*
X0041800Y0020300D01*
X0041800Y0022800D02*
X0041800Y0023300D01*
X0065300Y0036800D02*
X0088300Y0036800D01*
X0088300Y0076800D01*
X0080800Y0076800D01*
X0080798Y0076674D01*
X0080792Y0076549D01*
X0080782Y0076424D01*
X0080768Y0076299D01*
X0080751Y0076174D01*
X0080729Y0076050D01*
X0080704Y0075927D01*
X0080674Y0075805D01*
X0080641Y0075684D01*
X0080604Y0075564D01*
X0080564Y0075445D01*
X0080519Y0075328D01*
X0080471Y0075211D01*
X0080419Y0075097D01*
X0080364Y0074984D01*
X0080305Y0074873D01*
X0080243Y0074764D01*
X0080177Y0074657D01*
X0080108Y0074552D01*
X0080036Y0074449D01*
X0079961Y0074348D01*
X0079882Y0074250D01*
X0079800Y0074155D01*
X0079716Y0074062D01*
X0079628Y0073972D01*
X0079538Y0073884D01*
X0079445Y0073800D01*
X0079350Y0073718D01*
X0079252Y0073639D01*
X0079151Y0073564D01*
X0079048Y0073492D01*
X0078943Y0073423D01*
X0078836Y0073357D01*
X0078727Y0073295D01*
X0078616Y0073236D01*
X0078503Y0073181D01*
X0078389Y0073129D01*
X0078272Y0073081D01*
X0078155Y0073036D01*
X0078036Y0072996D01*
X0077916Y0072959D01*
X0077795Y0072926D01*
X0077673Y0072896D01*
X0077550Y0072871D01*
X0077426Y0072849D01*
X0077301Y0072832D01*
X0077176Y0072818D01*
X0077051Y0072808D01*
X0076926Y0072802D01*
X0076800Y0072800D01*
X0076674Y0072802D01*
X0076549Y0072808D01*
X0076424Y0072818D01*
X0076299Y0072832D01*
X0076174Y0072849D01*
X0076050Y0072871D01*
X0075927Y0072896D01*
X0075805Y0072926D01*
X0075684Y0072959D01*
X0075564Y0072996D01*
X0075445Y0073036D01*
X0075328Y0073081D01*
X0075211Y0073129D01*
X0075097Y0073181D01*
X0074984Y0073236D01*
X0074873Y0073295D01*
X0074764Y0073357D01*
X0074657Y0073423D01*
X0074552Y0073492D01*
X0074449Y0073564D01*
X0074348Y0073639D01*
X0074250Y0073718D01*
X0074155Y0073800D01*
X0074062Y0073884D01*
X0073972Y0073972D01*
X0073884Y0074062D01*
X0073800Y0074155D01*
X0073718Y0074250D01*
X0073639Y0074348D01*
X0073564Y0074449D01*
X0073492Y0074552D01*
X0073423Y0074657D01*
X0073357Y0074764D01*
X0073295Y0074873D01*
X0073236Y0074984D01*
X0073181Y0075097D01*
X0073129Y0075211D01*
X0073081Y0075328D01*
X0073036Y0075445D01*
X0072996Y0075564D01*
X0072959Y0075684D01*
X0072926Y0075805D01*
X0072896Y0075927D01*
X0072871Y0076050D01*
X0072849Y0076174D01*
X0072832Y0076299D01*
X0072818Y0076424D01*
X0072808Y0076549D01*
X0072802Y0076674D01*
X0072800Y0076800D01*
X0065300Y0076800D01*
X0065300Y0036800D01*
X0094300Y0035300D02*
X0094300Y0028300D01*
X0094302Y0028240D01*
X0094307Y0028179D01*
X0094316Y0028120D01*
X0094329Y0028061D01*
X0094345Y0028002D01*
X0094365Y0027945D01*
X0094388Y0027890D01*
X0094415Y0027835D01*
X0094444Y0027783D01*
X0094477Y0027732D01*
X0094513Y0027683D01*
X0094551Y0027637D01*
X0094593Y0027593D01*
X0094637Y0027551D01*
X0094683Y0027513D01*
X0094732Y0027477D01*
X0094783Y0027444D01*
X0094835Y0027415D01*
X0094890Y0027388D01*
X0094945Y0027365D01*
X0095002Y0027345D01*
X0095061Y0027329D01*
X0095120Y0027316D01*
X0095179Y0027307D01*
X0095240Y0027302D01*
X0095300Y0027300D01*
X0096800Y0027300D01*
X0097300Y0027800D01*
X0116300Y0027800D01*
X0116800Y0027300D01*
X0118300Y0027300D01*
X0118360Y0027302D01*
X0118421Y0027307D01*
X0118480Y0027316D01*
X0118539Y0027329D01*
X0118598Y0027345D01*
X0118655Y0027365D01*
X0118710Y0027388D01*
X0118765Y0027415D01*
X0118817Y0027444D01*
X0118868Y0027477D01*
X0118917Y0027513D01*
X0118963Y0027551D01*
X0119007Y0027593D01*
X0119049Y0027637D01*
X0119087Y0027683D01*
X0119123Y0027732D01*
X0119156Y0027783D01*
X0119185Y0027835D01*
X0119212Y0027890D01*
X0119235Y0027945D01*
X0119255Y0028002D01*
X0119271Y0028061D01*
X0119284Y0028120D01*
X0119293Y0028179D01*
X0119298Y0028240D01*
X0119300Y0028300D01*
X0119300Y0035300D01*
X0119298Y0035360D01*
X0119293Y0035421D01*
X0119284Y0035480D01*
X0119271Y0035539D01*
X0119255Y0035598D01*
X0119235Y0035655D01*
X0119212Y0035710D01*
X0119185Y0035765D01*
X0119156Y0035817D01*
X0119123Y0035868D01*
X0119087Y0035917D01*
X0119049Y0035963D01*
X0119007Y0036007D01*
X0118963Y0036049D01*
X0118917Y0036087D01*
X0118868Y0036123D01*
X0118817Y0036156D01*
X0118765Y0036185D01*
X0118710Y0036212D01*
X0118655Y0036235D01*
X0118598Y0036255D01*
X0118539Y0036271D01*
X0118480Y0036284D01*
X0118421Y0036293D01*
X0118360Y0036298D01*
X0118300Y0036300D01*
X0116800Y0036300D01*
X0116300Y0035800D01*
X0097300Y0035800D01*
X0096800Y0036300D01*
X0095300Y0036300D01*
X0095240Y0036298D01*
X0095179Y0036293D01*
X0095120Y0036284D01*
X0095061Y0036271D01*
X0095002Y0036255D01*
X0094945Y0036235D01*
X0094890Y0036212D01*
X0094835Y0036185D01*
X0094783Y0036156D01*
X0094732Y0036123D01*
X0094683Y0036087D01*
X0094637Y0036049D01*
X0094593Y0036007D01*
X0094551Y0035963D01*
X0094513Y0035917D01*
X0094477Y0035868D01*
X0094444Y0035817D01*
X0094415Y0035765D01*
X0094388Y0035710D01*
X0094365Y0035655D01*
X0094345Y0035598D01*
X0094329Y0035539D01*
X0094316Y0035480D01*
X0094307Y0035421D01*
X0094302Y0035360D01*
X0094300Y0035300D01*
X0100300Y0026300D02*
X0113300Y0026300D01*
X0113387Y0026298D01*
X0113474Y0026292D01*
X0113561Y0026283D01*
X0113647Y0026270D01*
X0113733Y0026253D01*
X0113818Y0026232D01*
X0113901Y0026207D01*
X0113984Y0026179D01*
X0114065Y0026148D01*
X0114145Y0026113D01*
X0114223Y0026074D01*
X0114300Y0026032D01*
X0114375Y0025987D01*
X0114447Y0025938D01*
X0114518Y0025887D01*
X0114586Y0025832D01*
X0114651Y0025775D01*
X0114714Y0025714D01*
X0114775Y0025651D01*
X0114832Y0025586D01*
X0114887Y0025518D01*
X0114938Y0025447D01*
X0114987Y0025375D01*
X0115032Y0025300D01*
X0115074Y0025223D01*
X0115113Y0025145D01*
X0115148Y0025065D01*
X0115179Y0024984D01*
X0115207Y0024901D01*
X0115232Y0024818D01*
X0115253Y0024733D01*
X0115270Y0024647D01*
X0115283Y0024561D01*
X0115292Y0024474D01*
X0115298Y0024387D01*
X0115300Y0024300D01*
X0111800Y0021800D02*
X0108100Y0021800D01*
X0105600Y0021800D02*
X0101800Y0021800D01*
X0098300Y0024300D02*
X0098302Y0024387D01*
X0098308Y0024474D01*
X0098317Y0024561D01*
X0098330Y0024647D01*
X0098347Y0024733D01*
X0098368Y0024818D01*
X0098393Y0024901D01*
X0098421Y0024984D01*
X0098452Y0025065D01*
X0098487Y0025145D01*
X0098526Y0025223D01*
X0098568Y0025300D01*
X0098613Y0025375D01*
X0098662Y0025447D01*
X0098713Y0025518D01*
X0098768Y0025586D01*
X0098825Y0025651D01*
X0098886Y0025714D01*
X0098949Y0025775D01*
X0099014Y0025832D01*
X0099082Y0025887D01*
X0099153Y0025938D01*
X0099225Y0025987D01*
X0099300Y0026032D01*
X0099377Y0026074D01*
X0099455Y0026113D01*
X0099535Y0026148D01*
X0099616Y0026179D01*
X0099699Y0026207D01*
X0099782Y0026232D01*
X0099867Y0026253D01*
X0099953Y0026270D01*
X0100039Y0026283D01*
X0100126Y0026292D01*
X0100213Y0026298D01*
X0100300Y0026300D01*
X0098300Y0019300D02*
X0098302Y0019213D01*
X0098308Y0019126D01*
X0098317Y0019039D01*
X0098330Y0018953D01*
X0098347Y0018867D01*
X0098368Y0018782D01*
X0098393Y0018699D01*
X0098421Y0018616D01*
X0098452Y0018535D01*
X0098487Y0018455D01*
X0098526Y0018377D01*
X0098568Y0018300D01*
X0098613Y0018225D01*
X0098662Y0018153D01*
X0098713Y0018082D01*
X0098768Y0018014D01*
X0098825Y0017949D01*
X0098886Y0017886D01*
X0098949Y0017825D01*
X0099014Y0017768D01*
X0099082Y0017713D01*
X0099153Y0017662D01*
X0099225Y0017613D01*
X0099300Y0017568D01*
X0099377Y0017526D01*
X0099455Y0017487D01*
X0099535Y0017452D01*
X0099616Y0017421D01*
X0099699Y0017393D01*
X0099782Y0017368D01*
X0099867Y0017347D01*
X0099953Y0017330D01*
X0100039Y0017317D01*
X0100126Y0017308D01*
X0100213Y0017302D01*
X0100300Y0017300D01*
X0113300Y0017300D01*
X0113387Y0017302D01*
X0113474Y0017308D01*
X0113561Y0017317D01*
X0113647Y0017330D01*
X0113733Y0017347D01*
X0113818Y0017368D01*
X0113901Y0017393D01*
X0113984Y0017421D01*
X0114065Y0017452D01*
X0114145Y0017487D01*
X0114223Y0017526D01*
X0114300Y0017568D01*
X0114375Y0017613D01*
X0114447Y0017662D01*
X0114518Y0017713D01*
X0114586Y0017768D01*
X0114651Y0017825D01*
X0114714Y0017886D01*
X0114775Y0017949D01*
X0114832Y0018014D01*
X0114887Y0018082D01*
X0114938Y0018153D01*
X0114987Y0018225D01*
X0115032Y0018300D01*
X0115074Y0018377D01*
X0115113Y0018455D01*
X0115148Y0018535D01*
X0115179Y0018616D01*
X0115207Y0018699D01*
X0115232Y0018782D01*
X0115253Y0018867D01*
X0115270Y0018953D01*
X0115283Y0019039D01*
X0115292Y0019126D01*
X0115298Y0019213D01*
X0115300Y0019300D01*
X0124300Y0041800D02*
X0121800Y0044300D01*
X0121800Y0049300D01*
X0124300Y0051800D01*
X0121800Y0054300D01*
X0121800Y0059300D01*
X0124300Y0061800D01*
X0129300Y0061800D01*
X0131800Y0059300D01*
X0131800Y0054300D01*
X0129300Y0051800D01*
X0131800Y0049300D01*
X0131800Y0044300D01*
X0129300Y0041800D01*
X0124300Y0041800D01*
X0114800Y0046800D02*
X0113300Y0046800D01*
X0113300Y0045300D01*
X0113300Y0046800D02*
X0111800Y0046800D01*
X0113300Y0046800D02*
X0113300Y0048300D01*
X0095800Y0051800D02*
X0095803Y0052070D01*
X0095813Y0052340D01*
X0095830Y0052609D01*
X0095853Y0052878D01*
X0095883Y0053147D01*
X0095919Y0053414D01*
X0095962Y0053681D01*
X0096011Y0053946D01*
X0096067Y0054210D01*
X0096130Y0054473D01*
X0096198Y0054734D01*
X0096274Y0054993D01*
X0096355Y0055250D01*
X0096443Y0055506D01*
X0096537Y0055759D01*
X0096637Y0056010D01*
X0096744Y0056258D01*
X0096856Y0056503D01*
X0096975Y0056746D01*
X0097099Y0056985D01*
X0097229Y0057222D01*
X0097365Y0057455D01*
X0097507Y0057685D01*
X0097654Y0057911D01*
X0097807Y0058134D01*
X0097965Y0058353D01*
X0098128Y0058568D01*
X0098297Y0058778D01*
X0098471Y0058985D01*
X0098650Y0059187D01*
X0098833Y0059385D01*
X0099022Y0059578D01*
X0099215Y0059767D01*
X0099413Y0059950D01*
X0099615Y0060129D01*
X0099822Y0060303D01*
X0100032Y0060472D01*
X0100247Y0060635D01*
X0100466Y0060793D01*
X0100689Y0060946D01*
X0100915Y0061093D01*
X0101145Y0061235D01*
X0101378Y0061371D01*
X0101615Y0061501D01*
X0101854Y0061625D01*
X0102097Y0061744D01*
X0102342Y0061856D01*
X0102590Y0061963D01*
X0102841Y0062063D01*
X0103094Y0062157D01*
X0103350Y0062245D01*
X0103607Y0062326D01*
X0103866Y0062402D01*
X0104127Y0062470D01*
X0104390Y0062533D01*
X0104654Y0062589D01*
X0104919Y0062638D01*
X0105186Y0062681D01*
X0105453Y0062717D01*
X0105722Y0062747D01*
X0105991Y0062770D01*
X0106260Y0062787D01*
X0106530Y0062797D01*
X0106800Y0062800D01*
X0107070Y0062797D01*
X0107340Y0062787D01*
X0107609Y0062770D01*
X0107878Y0062747D01*
X0108147Y0062717D01*
X0108414Y0062681D01*
X0108681Y0062638D01*
X0108946Y0062589D01*
X0109210Y0062533D01*
X0109473Y0062470D01*
X0109734Y0062402D01*
X0109993Y0062326D01*
X0110250Y0062245D01*
X0110506Y0062157D01*
X0110759Y0062063D01*
X0111010Y0061963D01*
X0111258Y0061856D01*
X0111503Y0061744D01*
X0111746Y0061625D01*
X0111985Y0061501D01*
X0112222Y0061371D01*
X0112455Y0061235D01*
X0112685Y0061093D01*
X0112911Y0060946D01*
X0113134Y0060793D01*
X0113353Y0060635D01*
X0113568Y0060472D01*
X0113778Y0060303D01*
X0113985Y0060129D01*
X0114187Y0059950D01*
X0114385Y0059767D01*
X0114578Y0059578D01*
X0114767Y0059385D01*
X0114950Y0059187D01*
X0115129Y0058985D01*
X0115303Y0058778D01*
X0115472Y0058568D01*
X0115635Y0058353D01*
X0115793Y0058134D01*
X0115946Y0057911D01*
X0116093Y0057685D01*
X0116235Y0057455D01*
X0116371Y0057222D01*
X0116501Y0056985D01*
X0116625Y0056746D01*
X0116744Y0056503D01*
X0116856Y0056258D01*
X0116963Y0056010D01*
X0117063Y0055759D01*
X0117157Y0055506D01*
X0117245Y0055250D01*
X0117326Y0054993D01*
X0117402Y0054734D01*
X0117470Y0054473D01*
X0117533Y0054210D01*
X0117589Y0053946D01*
X0117638Y0053681D01*
X0117681Y0053414D01*
X0117717Y0053147D01*
X0117747Y0052878D01*
X0117770Y0052609D01*
X0117787Y0052340D01*
X0117797Y0052070D01*
X0117800Y0051800D01*
X0117797Y0051530D01*
X0117787Y0051260D01*
X0117770Y0050991D01*
X0117747Y0050722D01*
X0117717Y0050453D01*
X0117681Y0050186D01*
X0117638Y0049919D01*
X0117589Y0049654D01*
X0117533Y0049390D01*
X0117470Y0049127D01*
X0117402Y0048866D01*
X0117326Y0048607D01*
X0117245Y0048350D01*
X0117157Y0048094D01*
X0117063Y0047841D01*
X0116963Y0047590D01*
X0116856Y0047342D01*
X0116744Y0047097D01*
X0116625Y0046854D01*
X0116501Y0046615D01*
X0116371Y0046378D01*
X0116235Y0046145D01*
X0116093Y0045915D01*
X0115946Y0045689D01*
X0115793Y0045466D01*
X0115635Y0045247D01*
X0115472Y0045032D01*
X0115303Y0044822D01*
X0115129Y0044615D01*
X0114950Y0044413D01*
X0114767Y0044215D01*
X0114578Y0044022D01*
X0114385Y0043833D01*
X0114187Y0043650D01*
X0113985Y0043471D01*
X0113778Y0043297D01*
X0113568Y0043128D01*
X0113353Y0042965D01*
X0113134Y0042807D01*
X0112911Y0042654D01*
X0112685Y0042507D01*
X0112455Y0042365D01*
X0112222Y0042229D01*
X0111985Y0042099D01*
X0111746Y0041975D01*
X0111503Y0041856D01*
X0111258Y0041744D01*
X0111010Y0041637D01*
X0110759Y0041537D01*
X0110506Y0041443D01*
X0110250Y0041355D01*
X0109993Y0041274D01*
X0109734Y0041198D01*
X0109473Y0041130D01*
X0109210Y0041067D01*
X0108946Y0041011D01*
X0108681Y0040962D01*
X0108414Y0040919D01*
X0108147Y0040883D01*
X0107878Y0040853D01*
X0107609Y0040830D01*
X0107340Y0040813D01*
X0107070Y0040803D01*
X0106800Y0040800D01*
X0106530Y0040803D01*
X0106260Y0040813D01*
X0105991Y0040830D01*
X0105722Y0040853D01*
X0105453Y0040883D01*
X0105186Y0040919D01*
X0104919Y0040962D01*
X0104654Y0041011D01*
X0104390Y0041067D01*
X0104127Y0041130D01*
X0103866Y0041198D01*
X0103607Y0041274D01*
X0103350Y0041355D01*
X0103094Y0041443D01*
X0102841Y0041537D01*
X0102590Y0041637D01*
X0102342Y0041744D01*
X0102097Y0041856D01*
X0101854Y0041975D01*
X0101615Y0042099D01*
X0101378Y0042229D01*
X0101145Y0042365D01*
X0100915Y0042507D01*
X0100689Y0042654D01*
X0100466Y0042807D01*
X0100247Y0042965D01*
X0100032Y0043128D01*
X0099822Y0043297D01*
X0099615Y0043471D01*
X0099413Y0043650D01*
X0099215Y0043833D01*
X0099022Y0044022D01*
X0098833Y0044215D01*
X0098650Y0044413D01*
X0098471Y0044615D01*
X0098297Y0044822D01*
X0098128Y0045032D01*
X0097965Y0045247D01*
X0097807Y0045466D01*
X0097654Y0045689D01*
X0097507Y0045915D01*
X0097365Y0046145D01*
X0097229Y0046378D01*
X0097099Y0046615D01*
X0096975Y0046854D01*
X0096856Y0047097D01*
X0096744Y0047342D01*
X0096637Y0047590D01*
X0096537Y0047841D01*
X0096443Y0048094D01*
X0096355Y0048350D01*
X0096274Y0048607D01*
X0096198Y0048866D01*
X0096130Y0049127D01*
X0096067Y0049390D01*
X0096011Y0049654D01*
X0095962Y0049919D01*
X0095919Y0050186D01*
X0095883Y0050453D01*
X0095853Y0050722D01*
X0095830Y0050991D01*
X0095813Y0051260D01*
X0095803Y0051530D01*
X0095800Y0051800D01*
X0101800Y0070300D02*
X0101800Y0071300D01*
X0100800Y0071300D01*
X0101800Y0071300D02*
X0101800Y0072300D01*
X0101800Y0071300D02*
X0102800Y0071300D01*
X0096800Y0076800D02*
X0096803Y0077045D01*
X0096812Y0077291D01*
X0096827Y0077536D01*
X0096848Y0077780D01*
X0096875Y0078024D01*
X0096908Y0078267D01*
X0096947Y0078510D01*
X0096992Y0078751D01*
X0097043Y0078991D01*
X0097100Y0079230D01*
X0097162Y0079467D01*
X0097231Y0079703D01*
X0097305Y0079937D01*
X0097385Y0080169D01*
X0097470Y0080399D01*
X0097561Y0080627D01*
X0097658Y0080852D01*
X0097760Y0081076D01*
X0097868Y0081296D01*
X0097981Y0081514D01*
X0098099Y0081729D01*
X0098223Y0081941D01*
X0098351Y0082150D01*
X0098485Y0082356D01*
X0098624Y0082558D01*
X0098768Y0082757D01*
X0098917Y0082952D01*
X0099070Y0083144D01*
X0099228Y0083332D01*
X0099390Y0083516D01*
X0099558Y0083695D01*
X0099729Y0083871D01*
X0099905Y0084042D01*
X0100084Y0084210D01*
X0100268Y0084372D01*
X0100456Y0084530D01*
X0100648Y0084683D01*
X0100843Y0084832D01*
X0101042Y0084976D01*
X0101244Y0085115D01*
X0101450Y0085249D01*
X0101659Y0085377D01*
X0101871Y0085501D01*
X0102086Y0085619D01*
X0102304Y0085732D01*
X0102524Y0085840D01*
X0102748Y0085942D01*
X0102973Y0086039D01*
X0103201Y0086130D01*
X0103431Y0086215D01*
X0103663Y0086295D01*
X0103897Y0086369D01*
X0104133Y0086438D01*
X0104370Y0086500D01*
X0104609Y0086557D01*
X0104849Y0086608D01*
X0105090Y0086653D01*
X0105333Y0086692D01*
X0105576Y0086725D01*
X0105820Y0086752D01*
X0106064Y0086773D01*
X0106309Y0086788D01*
X0106555Y0086797D01*
X0106800Y0086800D01*
X0107045Y0086797D01*
X0107291Y0086788D01*
X0107536Y0086773D01*
X0107780Y0086752D01*
X0108024Y0086725D01*
X0108267Y0086692D01*
X0108510Y0086653D01*
X0108751Y0086608D01*
X0108991Y0086557D01*
X0109230Y0086500D01*
X0109467Y0086438D01*
X0109703Y0086369D01*
X0109937Y0086295D01*
X0110169Y0086215D01*
X0110399Y0086130D01*
X0110627Y0086039D01*
X0110852Y0085942D01*
X0111076Y0085840D01*
X0111296Y0085732D01*
X0111514Y0085619D01*
X0111729Y0085501D01*
X0111941Y0085377D01*
X0112150Y0085249D01*
X0112356Y0085115D01*
X0112558Y0084976D01*
X0112757Y0084832D01*
X0112952Y0084683D01*
X0113144Y0084530D01*
X0113332Y0084372D01*
X0113516Y0084210D01*
X0113695Y0084042D01*
X0113871Y0083871D01*
X0114042Y0083695D01*
X0114210Y0083516D01*
X0114372Y0083332D01*
X0114530Y0083144D01*
X0114683Y0082952D01*
X0114832Y0082757D01*
X0114976Y0082558D01*
X0115115Y0082356D01*
X0115249Y0082150D01*
X0115377Y0081941D01*
X0115501Y0081729D01*
X0115619Y0081514D01*
X0115732Y0081296D01*
X0115840Y0081076D01*
X0115942Y0080852D01*
X0116039Y0080627D01*
X0116130Y0080399D01*
X0116215Y0080169D01*
X0116295Y0079937D01*
X0116369Y0079703D01*
X0116438Y0079467D01*
X0116500Y0079230D01*
X0116557Y0078991D01*
X0116608Y0078751D01*
X0116653Y0078510D01*
X0116692Y0078267D01*
X0116725Y0078024D01*
X0116752Y0077780D01*
X0116773Y0077536D01*
X0116788Y0077291D01*
X0116797Y0077045D01*
X0116800Y0076800D01*
X0116797Y0076555D01*
X0116788Y0076309D01*
X0116773Y0076064D01*
X0116752Y0075820D01*
X0116725Y0075576D01*
X0116692Y0075333D01*
X0116653Y0075090D01*
X0116608Y0074849D01*
X0116557Y0074609D01*
X0116500Y0074370D01*
X0116438Y0074133D01*
X0116369Y0073897D01*
X0116295Y0073663D01*
X0116215Y0073431D01*
X0116130Y0073201D01*
X0116039Y0072973D01*
X0115942Y0072748D01*
X0115840Y0072524D01*
X0115732Y0072304D01*
X0115619Y0072086D01*
X0115501Y0071871D01*
X0115377Y0071659D01*
X0115249Y0071450D01*
X0115115Y0071244D01*
X0114976Y0071042D01*
X0114832Y0070843D01*
X0114683Y0070648D01*
X0114530Y0070456D01*
X0114372Y0070268D01*
X0114210Y0070084D01*
X0114042Y0069905D01*
X0113871Y0069729D01*
X0113695Y0069558D01*
X0113516Y0069390D01*
X0113332Y0069228D01*
X0113144Y0069070D01*
X0112952Y0068917D01*
X0112757Y0068768D01*
X0112558Y0068624D01*
X0112356Y0068485D01*
X0112150Y0068351D01*
X0111941Y0068223D01*
X0111729Y0068099D01*
X0111514Y0067981D01*
X0111296Y0067868D01*
X0111076Y0067760D01*
X0110852Y0067658D01*
X0110627Y0067561D01*
X0110399Y0067470D01*
X0110169Y0067385D01*
X0109937Y0067305D01*
X0109703Y0067231D01*
X0109467Y0067162D01*
X0109230Y0067100D01*
X0108991Y0067043D01*
X0108751Y0066992D01*
X0108510Y0066947D01*
X0108267Y0066908D01*
X0108024Y0066875D01*
X0107780Y0066848D01*
X0107536Y0066827D01*
X0107291Y0066812D01*
X0107045Y0066803D01*
X0106800Y0066800D01*
X0106555Y0066803D01*
X0106309Y0066812D01*
X0106064Y0066827D01*
X0105820Y0066848D01*
X0105576Y0066875D01*
X0105333Y0066908D01*
X0105090Y0066947D01*
X0104849Y0066992D01*
X0104609Y0067043D01*
X0104370Y0067100D01*
X0104133Y0067162D01*
X0103897Y0067231D01*
X0103663Y0067305D01*
X0103431Y0067385D01*
X0103201Y0067470D01*
X0102973Y0067561D01*
X0102748Y0067658D01*
X0102524Y0067760D01*
X0102304Y0067868D01*
X0102086Y0067981D01*
X0101871Y0068099D01*
X0101659Y0068223D01*
X0101450Y0068351D01*
X0101244Y0068485D01*
X0101042Y0068624D01*
X0100843Y0068768D01*
X0100648Y0068917D01*
X0100456Y0069070D01*
X0100268Y0069228D01*
X0100084Y0069390D01*
X0099905Y0069558D01*
X0099729Y0069729D01*
X0099558Y0069905D01*
X0099390Y0070084D01*
X0099228Y0070268D01*
X0099070Y0070456D01*
X0098917Y0070648D01*
X0098768Y0070843D01*
X0098624Y0071042D01*
X0098485Y0071244D01*
X0098351Y0071450D01*
X0098223Y0071659D01*
X0098099Y0071871D01*
X0097981Y0072086D01*
X0097868Y0072304D01*
X0097760Y0072524D01*
X0097658Y0072748D01*
X0097561Y0072973D01*
X0097470Y0073201D01*
X0097385Y0073431D01*
X0097305Y0073663D01*
X0097231Y0073897D01*
X0097162Y0074133D01*
X0097100Y0074370D01*
X0097043Y0074609D01*
X0096992Y0074849D01*
X0096947Y0075090D01*
X0096908Y0075333D01*
X0096875Y0075576D01*
X0096848Y0075820D01*
X0096827Y0076064D01*
X0096812Y0076309D01*
X0096803Y0076555D01*
X0096800Y0076800D01*
X0066800Y0091800D02*
X0066803Y0092045D01*
X0066812Y0092291D01*
X0066827Y0092536D01*
X0066848Y0092780D01*
X0066875Y0093024D01*
X0066908Y0093267D01*
X0066947Y0093510D01*
X0066992Y0093751D01*
X0067043Y0093991D01*
X0067100Y0094230D01*
X0067162Y0094467D01*
X0067231Y0094703D01*
X0067305Y0094937D01*
X0067385Y0095169D01*
X0067470Y0095399D01*
X0067561Y0095627D01*
X0067658Y0095852D01*
X0067760Y0096076D01*
X0067868Y0096296D01*
X0067981Y0096514D01*
X0068099Y0096729D01*
X0068223Y0096941D01*
X0068351Y0097150D01*
X0068485Y0097356D01*
X0068624Y0097558D01*
X0068768Y0097757D01*
X0068917Y0097952D01*
X0069070Y0098144D01*
X0069228Y0098332D01*
X0069390Y0098516D01*
X0069558Y0098695D01*
X0069729Y0098871D01*
X0069905Y0099042D01*
X0070084Y0099210D01*
X0070268Y0099372D01*
X0070456Y0099530D01*
X0070648Y0099683D01*
X0070843Y0099832D01*
X0071042Y0099976D01*
X0071244Y0100115D01*
X0071450Y0100249D01*
X0071659Y0100377D01*
X0071871Y0100501D01*
X0072086Y0100619D01*
X0072304Y0100732D01*
X0072524Y0100840D01*
X0072748Y0100942D01*
X0072973Y0101039D01*
X0073201Y0101130D01*
X0073431Y0101215D01*
X0073663Y0101295D01*
X0073897Y0101369D01*
X0074133Y0101438D01*
X0074370Y0101500D01*
X0074609Y0101557D01*
X0074849Y0101608D01*
X0075090Y0101653D01*
X0075333Y0101692D01*
X0075576Y0101725D01*
X0075820Y0101752D01*
X0076064Y0101773D01*
X0076309Y0101788D01*
X0076555Y0101797D01*
X0076800Y0101800D01*
X0077045Y0101797D01*
X0077291Y0101788D01*
X0077536Y0101773D01*
X0077780Y0101752D01*
X0078024Y0101725D01*
X0078267Y0101692D01*
X0078510Y0101653D01*
X0078751Y0101608D01*
X0078991Y0101557D01*
X0079230Y0101500D01*
X0079467Y0101438D01*
X0079703Y0101369D01*
X0079937Y0101295D01*
X0080169Y0101215D01*
X0080399Y0101130D01*
X0080627Y0101039D01*
X0080852Y0100942D01*
X0081076Y0100840D01*
X0081296Y0100732D01*
X0081514Y0100619D01*
X0081729Y0100501D01*
X0081941Y0100377D01*
X0082150Y0100249D01*
X0082356Y0100115D01*
X0082558Y0099976D01*
X0082757Y0099832D01*
X0082952Y0099683D01*
X0083144Y0099530D01*
X0083332Y0099372D01*
X0083516Y0099210D01*
X0083695Y0099042D01*
X0083871Y0098871D01*
X0084042Y0098695D01*
X0084210Y0098516D01*
X0084372Y0098332D01*
X0084530Y0098144D01*
X0084683Y0097952D01*
X0084832Y0097757D01*
X0084976Y0097558D01*
X0085115Y0097356D01*
X0085249Y0097150D01*
X0085377Y0096941D01*
X0085501Y0096729D01*
X0085619Y0096514D01*
X0085732Y0096296D01*
X0085840Y0096076D01*
X0085942Y0095852D01*
X0086039Y0095627D01*
X0086130Y0095399D01*
X0086215Y0095169D01*
X0086295Y0094937D01*
X0086369Y0094703D01*
X0086438Y0094467D01*
X0086500Y0094230D01*
X0086557Y0093991D01*
X0086608Y0093751D01*
X0086653Y0093510D01*
X0086692Y0093267D01*
X0086725Y0093024D01*
X0086752Y0092780D01*
X0086773Y0092536D01*
X0086788Y0092291D01*
X0086797Y0092045D01*
X0086800Y0091800D01*
X0086797Y0091555D01*
X0086788Y0091309D01*
X0086773Y0091064D01*
X0086752Y0090820D01*
X0086725Y0090576D01*
X0086692Y0090333D01*
X0086653Y0090090D01*
X0086608Y0089849D01*
X0086557Y0089609D01*
X0086500Y0089370D01*
X0086438Y0089133D01*
X0086369Y0088897D01*
X0086295Y0088663D01*
X0086215Y0088431D01*
X0086130Y0088201D01*
X0086039Y0087973D01*
X0085942Y0087748D01*
X0085840Y0087524D01*
X0085732Y0087304D01*
X0085619Y0087086D01*
X0085501Y0086871D01*
X0085377Y0086659D01*
X0085249Y0086450D01*
X0085115Y0086244D01*
X0084976Y0086042D01*
X0084832Y0085843D01*
X0084683Y0085648D01*
X0084530Y0085456D01*
X0084372Y0085268D01*
X0084210Y0085084D01*
X0084042Y0084905D01*
X0083871Y0084729D01*
X0083695Y0084558D01*
X0083516Y0084390D01*
X0083332Y0084228D01*
X0083144Y0084070D01*
X0082952Y0083917D01*
X0082757Y0083768D01*
X0082558Y0083624D01*
X0082356Y0083485D01*
X0082150Y0083351D01*
X0081941Y0083223D01*
X0081729Y0083099D01*
X0081514Y0082981D01*
X0081296Y0082868D01*
X0081076Y0082760D01*
X0080852Y0082658D01*
X0080627Y0082561D01*
X0080399Y0082470D01*
X0080169Y0082385D01*
X0079937Y0082305D01*
X0079703Y0082231D01*
X0079467Y0082162D01*
X0079230Y0082100D01*
X0078991Y0082043D01*
X0078751Y0081992D01*
X0078510Y0081947D01*
X0078267Y0081908D01*
X0078024Y0081875D01*
X0077780Y0081848D01*
X0077536Y0081827D01*
X0077291Y0081812D01*
X0077045Y0081803D01*
X0076800Y0081800D01*
X0076555Y0081803D01*
X0076309Y0081812D01*
X0076064Y0081827D01*
X0075820Y0081848D01*
X0075576Y0081875D01*
X0075333Y0081908D01*
X0075090Y0081947D01*
X0074849Y0081992D01*
X0074609Y0082043D01*
X0074370Y0082100D01*
X0074133Y0082162D01*
X0073897Y0082231D01*
X0073663Y0082305D01*
X0073431Y0082385D01*
X0073201Y0082470D01*
X0072973Y0082561D01*
X0072748Y0082658D01*
X0072524Y0082760D01*
X0072304Y0082868D01*
X0072086Y0082981D01*
X0071871Y0083099D01*
X0071659Y0083223D01*
X0071450Y0083351D01*
X0071244Y0083485D01*
X0071042Y0083624D01*
X0070843Y0083768D01*
X0070648Y0083917D01*
X0070456Y0084070D01*
X0070268Y0084228D01*
X0070084Y0084390D01*
X0069905Y0084558D01*
X0069729Y0084729D01*
X0069558Y0084905D01*
X0069390Y0085084D01*
X0069228Y0085268D01*
X0069070Y0085456D01*
X0068917Y0085648D01*
X0068768Y0085843D01*
X0068624Y0086042D01*
X0068485Y0086244D01*
X0068351Y0086450D01*
X0068223Y0086659D01*
X0068099Y0086871D01*
X0067981Y0087086D01*
X0067868Y0087304D01*
X0067760Y0087524D01*
X0067658Y0087748D01*
X0067561Y0087973D01*
X0067470Y0088201D01*
X0067385Y0088431D01*
X0067305Y0088663D01*
X0067231Y0088897D01*
X0067162Y0089133D01*
X0067100Y0089370D01*
X0067043Y0089609D01*
X0066992Y0089849D01*
X0066947Y0090090D01*
X0066908Y0090333D01*
X0066875Y0090576D01*
X0066848Y0090820D01*
X0066827Y0091064D01*
X0066812Y0091309D01*
X0066803Y0091555D01*
X0066800Y0091800D01*
X0071300Y0095800D02*
X0071300Y0096800D01*
X0071300Y0097800D01*
X0071300Y0096800D02*
X0070300Y0096800D01*
X0071300Y0096800D02*
X0072300Y0096800D01*
X0124300Y0051800D02*
X0129300Y0051800D01*
D13*
X0108100Y0024800D02*
X0108100Y0021800D01*
X0108100Y0018800D01*
X0105600Y0018800D02*
X0105600Y0021800D01*
X0105600Y0024800D01*
D14*
X0106156Y0027550D02*
X0103154Y0027550D01*
X0104655Y0027550D02*
X0104655Y0032054D01*
X0103154Y0030553D01*
X0101553Y0031303D02*
X0100802Y0032054D01*
X0099301Y0032054D01*
X0098550Y0031303D01*
X0098550Y0028301D01*
X0099301Y0027550D01*
X0100802Y0027550D01*
X0101553Y0028301D01*
X0101906Y0038050D02*
X0100405Y0038050D01*
X0099654Y0038801D01*
X0098053Y0038050D02*
X0096551Y0039551D01*
X0097302Y0039551D02*
X0095050Y0039551D01*
X0095050Y0038050D02*
X0095050Y0042554D01*
X0097302Y0042554D01*
X0098053Y0041803D01*
X0098053Y0040302D01*
X0097302Y0039551D01*
X0094949Y0041801D02*
X0094198Y0041050D01*
X0092697Y0041050D01*
X0091946Y0041801D01*
X0091946Y0043302D02*
X0093447Y0044053D01*
X0094198Y0044053D01*
X0094949Y0043302D01*
X0094949Y0041801D01*
X0091946Y0043302D02*
X0091946Y0045554D01*
X0094949Y0045554D01*
X0099654Y0041803D02*
X0100405Y0042554D01*
X0101906Y0042554D01*
X0102656Y0041803D01*
X0102656Y0041053D01*
X0101906Y0040302D01*
X0102656Y0039551D01*
X0102656Y0038801D01*
X0101906Y0038050D01*
X0101906Y0040302D02*
X0101155Y0040302D01*
X0090345Y0041801D02*
X0089594Y0041050D01*
X0088093Y0041050D01*
X0087342Y0041801D01*
X0087342Y0044803D01*
X0088093Y0045554D01*
X0089594Y0045554D01*
X0090345Y0044803D01*
X0084156Y0031554D02*
X0082655Y0030803D01*
X0081154Y0029302D01*
X0083406Y0029302D01*
X0084156Y0028551D01*
X0084156Y0027801D01*
X0083406Y0027050D01*
X0081905Y0027050D01*
X0081154Y0027801D01*
X0081154Y0029302D01*
X0079553Y0027801D02*
X0078802Y0027050D01*
X0077301Y0027050D01*
X0076550Y0027801D01*
X0076550Y0030803D01*
X0077301Y0031554D01*
X0078802Y0031554D01*
X0079553Y0030803D01*
X0052550Y0042593D02*
X0051799Y0041842D01*
X0048797Y0041842D01*
X0048046Y0042593D01*
X0048046Y0044094D01*
X0048797Y0044845D01*
X0048797Y0046446D02*
X0048046Y0047197D01*
X0048046Y0048698D01*
X0048797Y0049449D01*
X0049547Y0049449D01*
X0052550Y0046446D01*
X0052550Y0049449D01*
X0051799Y0044845D02*
X0052550Y0044094D01*
X0052550Y0042593D01*
X0037550Y0042449D02*
X0037550Y0039446D01*
X0037550Y0040947D02*
X0033046Y0040947D01*
X0034547Y0039446D01*
X0033797Y0037845D02*
X0035298Y0037845D01*
X0036049Y0037094D01*
X0036049Y0034842D01*
X0037550Y0034842D02*
X0033046Y0034842D01*
X0033046Y0037094D01*
X0033797Y0037845D01*
X0036049Y0036343D02*
X0037550Y0037845D01*
X0027550Y0037845D02*
X0026049Y0036343D01*
X0026049Y0037094D02*
X0025298Y0037845D01*
X0023797Y0037845D01*
X0023046Y0037094D01*
X0023046Y0034842D01*
X0027550Y0034842D01*
X0026049Y0034842D02*
X0026049Y0037094D01*
X0027550Y0039446D02*
X0024547Y0042449D01*
X0023797Y0042449D01*
X0023046Y0041698D01*
X0023046Y0040197D01*
X0023797Y0039446D01*
X0027550Y0039446D02*
X0027550Y0042449D01*
X0031800Y0056800D02*
X0044300Y0056800D01*
X0046800Y0059300D01*
X0031800Y0056800D02*
X0031800Y0096800D01*
X0044300Y0096800D01*
X0046800Y0094300D01*
X0031800Y0096800D02*
X0029300Y0094300D01*
X0029300Y0059300D01*
X0031800Y0056800D01*
X0026650Y0067050D02*
X0022146Y0067050D01*
X0022146Y0069302D01*
X0022897Y0070053D01*
X0024398Y0070053D01*
X0025149Y0069302D01*
X0025149Y0067050D01*
X0025149Y0068551D02*
X0026650Y0070053D01*
X0024398Y0071654D02*
X0024398Y0074656D01*
X0022146Y0073906D02*
X0024398Y0071654D01*
X0026650Y0073906D02*
X0022146Y0073906D01*
X0029300Y0074300D02*
X0031800Y0074300D01*
X0031800Y0079300D02*
X0029300Y0079300D01*
X0049300Y0081800D02*
X0049300Y0071800D01*
X0065550Y0078050D02*
X0067051Y0078050D01*
X0066301Y0078050D02*
X0066301Y0082554D01*
X0067051Y0082554D02*
X0065550Y0082554D01*
X0068619Y0081803D02*
X0068619Y0078801D01*
X0069370Y0078050D01*
X0070871Y0078050D01*
X0071622Y0078801D01*
X0073223Y0078050D02*
X0076226Y0078050D01*
X0074724Y0078050D02*
X0074724Y0082554D01*
X0073223Y0081053D01*
X0071622Y0081803D02*
X0070871Y0082554D01*
X0069370Y0082554D01*
X0068619Y0081803D01*
X0086550Y0097801D02*
X0087301Y0097050D01*
X0088802Y0097050D01*
X0089553Y0097801D01*
X0091154Y0097801D02*
X0091154Y0097050D01*
X0091154Y0097801D02*
X0094156Y0100803D01*
X0094156Y0101554D01*
X0091154Y0101554D01*
X0089553Y0100803D02*
X0088802Y0101554D01*
X0087301Y0101554D01*
X0086550Y0100803D01*
X0086550Y0097801D01*
X0097046Y0093406D02*
X0099298Y0091154D01*
X0099298Y0094156D01*
X0101550Y0093406D02*
X0097046Y0093406D01*
X0097797Y0089553D02*
X0097046Y0088802D01*
X0097046Y0087301D01*
X0097797Y0086550D01*
X0100799Y0086550D01*
X0101550Y0087301D01*
X0101550Y0088802D01*
X0100799Y0089553D01*
X0134246Y0059998D02*
X0134246Y0058497D01*
X0134997Y0057746D01*
X0134997Y0056145D02*
X0134246Y0055394D01*
X0134246Y0053142D01*
X0138750Y0053142D01*
X0137249Y0053142D02*
X0137249Y0055394D01*
X0136498Y0056145D01*
X0134997Y0056145D01*
X0138750Y0057746D02*
X0135747Y0060749D01*
X0134997Y0060749D01*
X0134246Y0059998D01*
X0138750Y0060749D02*
X0138750Y0057746D01*
X0134246Y0051541D02*
X0134246Y0050039D01*
X0134246Y0050790D02*
X0137999Y0050790D01*
X0138750Y0050039D01*
X0138750Y0049289D01*
X0137999Y0048538D01*
X0035550Y0019906D02*
X0035550Y0018405D01*
X0034799Y0017654D01*
X0033298Y0019155D02*
X0033298Y0019906D01*
X0034049Y0020656D01*
X0034799Y0020656D01*
X0035550Y0019906D01*
X0033298Y0019906D02*
X0032547Y0020656D01*
X0031797Y0020656D01*
X0031046Y0019906D01*
X0031046Y0018405D01*
X0031797Y0017654D01*
X0031797Y0016053D02*
X0031046Y0015302D01*
X0031046Y0013801D01*
X0031797Y0013050D01*
X0034799Y0013050D01*
X0035550Y0013801D01*
X0035550Y0015302D01*
X0034799Y0016053D01*
X0008599Y0061750D02*
X0009350Y0062501D01*
X0009350Y0063251D01*
X0008599Y0064002D01*
X0004846Y0064002D01*
X0004846Y0063251D02*
X0004846Y0064753D01*
X0004846Y0066354D02*
X0004846Y0068606D01*
X0005597Y0069356D01*
X0007098Y0069356D01*
X0007849Y0068606D01*
X0007849Y0066354D01*
X0009350Y0066354D02*
X0004846Y0066354D01*
X0006347Y0070958D02*
X0004846Y0072459D01*
X0009350Y0072459D01*
X0009350Y0070958D02*
X0009350Y0073960D01*
D15*
X0038800Y0042800D02*
X0041800Y0042800D01*
X0044800Y0042800D01*
X0044800Y0040800D02*
X0041800Y0040800D01*
X0038800Y0040800D01*
X0038800Y0022800D02*
X0041800Y0022800D01*
X0044800Y0022800D01*
X0044800Y0020800D02*
X0041800Y0020800D01*
X0038800Y0020800D01*
D16*
X0026800Y0017600D03*
X0016800Y0017600D03*
X0016800Y0046000D03*
X0026800Y0046000D03*
D17*
X0092600Y0031800D03*
X0121000Y0031800D03*
M02*
