%
M48
M72
T01C0.03200
T02C0.04000
%
T01
X16800Y11800
X26800Y11800
X41800Y16800
X41800Y26800
X41800Y36800
X41800Y46800
X26800Y51800
X16800Y51800
X61800Y51800
X61800Y41800
X86800Y31800
X91800Y41800
X91800Y51800
X101800Y51800
X111800Y51800
X91800Y61800
X91800Y71800
X106800Y71800
X106800Y81800
X81800Y91800
X71800Y91800
X61800Y71800
X61800Y61800
X61800Y21800
X71800Y21800
X96800Y21800
X116800Y21800
X126800Y31800
T02
X16800Y66800
X16800Y76800
X16800Y86800
X36800Y76800
X46800Y66800
X46800Y86800
X126800Y56800
X126800Y46800
M30
