G75*
%MOIN*%
%OFA0B0*%
%FSLAX25Y25*%
%IPPOS*%
%LPD*%
%AMOC8*
5,1,8,0,0,1.08239X$1,22.5*
%
%ADD10C,0.00000*%
%ADD11C,0.00300*%
D10*
X0001800Y0001800D02*
X0001800Y0106761D01*
X0140501Y0106761D01*
X0140501Y0001800D01*
X0001800Y0001800D01*
D11*
X0132950Y0055303D02*
X0134184Y0054069D01*
X0135419Y0054069D01*
X0136653Y0055303D01*
X0135419Y0057142D02*
X0134802Y0056525D01*
X0133567Y0056525D01*
X0132950Y0057142D01*
X0132950Y0058993D01*
X0132950Y0060208D02*
X0134184Y0061442D01*
X0135419Y0061442D01*
X0136653Y0060208D01*
X0135419Y0058993D02*
X0135419Y0057142D01*
X0135419Y0066346D02*
X0134802Y0066963D01*
X0134802Y0068198D01*
X0134184Y0068815D01*
X0133567Y0068815D01*
X0132950Y0068198D01*
X0132950Y0066963D01*
X0133567Y0066346D01*
X0135419Y0066346D02*
X0136036Y0066346D01*
X0136653Y0066963D01*
X0136653Y0068198D01*
X0136036Y0068815D01*
X0135419Y0070029D02*
X0135419Y0071264D01*
X0136036Y0070647D02*
X0133567Y0070647D01*
X0132950Y0071264D01*
X0133567Y0072485D02*
X0134802Y0072485D01*
X0135419Y0073102D01*
X0135419Y0074336D01*
X0134802Y0074954D01*
X0134184Y0074954D01*
X0134184Y0072485D01*
X0133567Y0072485D02*
X0132950Y0073102D01*
X0132950Y0074336D01*
X0132950Y0077402D02*
X0135419Y0076168D01*
X0135419Y0078637D02*
X0132950Y0077402D01*
X0133567Y0079851D02*
X0134802Y0079851D01*
X0135419Y0080468D01*
X0135419Y0081703D01*
X0134802Y0082320D01*
X0134184Y0082320D01*
X0134184Y0079851D01*
X0133567Y0079851D02*
X0132950Y0080468D01*
X0132950Y0081703D01*
X0132950Y0087217D02*
X0135419Y0089686D01*
X0136036Y0089686D01*
X0136653Y0089069D01*
X0136653Y0087835D01*
X0136036Y0087217D01*
X0132950Y0087217D02*
X0132950Y0089686D01*
X0133567Y0090901D02*
X0136036Y0093369D01*
X0133567Y0093369D01*
X0132950Y0092752D01*
X0132950Y0091518D01*
X0133567Y0090901D01*
X0136036Y0090901D01*
X0136653Y0091518D01*
X0136653Y0092752D01*
X0136036Y0093369D01*
X0135419Y0094584D02*
X0136653Y0095818D01*
X0132950Y0095818D01*
X0132950Y0094584D02*
X0132950Y0097052D01*
X0133567Y0098267D02*
X0134184Y0098267D01*
X0134802Y0098884D01*
X0134802Y0100118D01*
X0134184Y0100736D01*
X0133567Y0100736D01*
X0132950Y0100118D01*
X0132950Y0098884D01*
X0133567Y0098267D01*
X0134802Y0098884D02*
X0135419Y0098267D01*
X0136036Y0098267D01*
X0136653Y0098884D01*
X0136653Y0100118D01*
X0136036Y0100736D01*
X0135419Y0100736D01*
X0134802Y0100118D01*
M02*
